Coordinates
version=1
nRows=32
nColumns=12
inDegrees=yes

Units are S.I. units (second, meters, Newtons, ...)
Angles are in degrees

endheader
time	SC_y	SC_z	SC_x	AC_y	AC_z	AC_x	GH_y	GH_z	GH_yy	EL_x	PS_y
       0.0              -46.79          26.48          5.897          68.16        -0.2968         -6.959           23.0          81.74         -35.97          70.35          95.25
   0.01891              -46.79          26.48          5.899          68.16        -0.2961          -6.96           23.0          81.73         -35.96          70.36          95.25
   0.03781              -46.79          26.48          5.902          68.16        -0.2953         -6.962          23.01          81.72         -35.94          70.37          95.25
   0.05672              -46.78          26.48          5.905          68.15        -0.2946         -6.964          23.01          81.71         -35.91          70.38          95.25
   0.07563              -46.78          26.48          5.908          68.15        -0.2937         -6.965          23.01           81.7         -35.89          70.39          95.24
   0.09453              -46.78          26.48          5.911          68.15        -0.2928         -6.967          23.02          81.69         -35.87           70.4          95.24
    0.1134              -46.77          26.48          5.914          68.15        -0.2919         -6.969          23.02          81.67         -35.84          70.42          95.23
    0.1323              -46.77          26.48          5.918          68.14        -0.2909         -6.972          23.03          81.66         -35.81          70.43          95.23
    0.1513              -46.77          26.48          5.922          68.14        -0.2898         -6.974          23.03          81.65         -35.78          70.44          95.23
    0.1702              -46.76          26.48          5.926          68.13        -0.2886         -6.976          23.04          81.63         -35.75          70.46          95.22
    0.1891              -46.76          26.48          5.931          68.13        -0.2873         -6.979          23.04          81.61         -35.71          70.47          95.22
     0.208              -46.75          26.48          5.936          68.13         -0.286         -6.982          23.05           81.6         -35.68          70.49          95.21
    0.2269              -46.74          26.49          5.941          68.12        -0.2845         -6.985          23.05          81.58         -35.64          70.51          95.21
    0.2458              -46.74          26.49          5.947          68.11        -0.2829         -6.989          23.06          81.56         -35.59          70.53           95.2
    0.2647              -46.73          26.49          5.953          68.11        -0.2812         -6.992          23.07          81.53         -35.55          70.55          95.19
    0.2836              -46.72          26.49          5.959           68.1        -0.2794         -6.996          23.07          81.51         -35.49          70.58          95.18
    0.3025              -46.72          26.49          5.967           68.1        -0.2774         -7.001          23.08          81.48         -35.44           70.6          95.18
    0.3214              -46.71          26.49          5.975          68.09        -0.2752         -7.005          23.09          81.45         -35.38          70.63          95.17
    0.3403               -46.7          26.49          5.983          68.08        -0.2728          -7.01           23.1          81.42         -35.31          70.66          95.16
    0.3592              -46.69           26.5          5.993          68.07        -0.2702         -7.016          23.11          81.39         -35.24          70.69          95.15
    0.3781              -46.68           26.5          6.003          68.06        -0.2673         -7.022          23.12          81.35         -35.16          70.73          95.14
     0.397              -46.66           26.5          6.014          68.05        -0.2641         -7.029          23.14          81.31         -35.07          70.77          95.12
     0.416              -46.65           26.5          6.027          68.04        -0.2607         -7.037          23.15          81.26         -34.98          70.82          95.11
    0.4349              -46.63           26.5          6.041          68.03        -0.2568         -7.045          23.17          81.21         -34.87          70.87          95.09
    0.4538              -46.62          26.51          6.056          68.01        -0.2525         -7.054          23.18          81.15         -34.75          70.92          95.08
    0.4727               -46.6          26.51          6.074          67.99        -0.2477         -7.065           23.2          81.09         -34.62          70.98          95.06
    0.4916              -46.58          26.51          6.093          67.98        -0.2423         -7.076          23.23          81.02         -34.47          71.05          95.04
    0.5105              -46.55          26.52          6.115          67.96        -0.2362         -7.089          23.25          80.94          -34.3          71.13          95.01
    0.5294              -46.53          26.52          6.139          67.93        -0.2294         -7.104          23.28          80.85         -34.11          71.22          94.98
    0.5483              -46.49          26.53          6.167          67.91        -0.2216         -7.121          23.31          80.75          -33.9          71.32          94.95
    0.5672              -46.46          26.53          6.199          67.88        -0.2128          -7.14          23.35          80.63         -33.65          71.43          94.92
    0.5861              -46.42          26.54          6.236          67.84        -0.2026         -7.162          23.39           80.5         -33.37          71.56          94.88
